<svg width="500" height="500" viewBox="0 0 500 500" fill="none" xmlns="http://www.w3.org/2000/svg">
<rect width="500" height="500" fill="white"/>
<g clip-path="url(#clip0_381_20)">
<path d="M290.798 127.107C373.751 127.107 441.003 194.35 441.003 277.306C441.003 360.262 373.753 427.511 290.798 427.511H195.551V400.203H290.798C323.624 400.203 354.486 387.419 377.697 364.208C400.908 340.998 413.691 310.135 413.691 277.309C413.691 244.483 400.908 213.621 377.697 190.41C354.486 167.199 323.624 154.416 290.798 154.416H209.205C171.558 154.416 140.93 185.044 140.93 222.691C140.93 260.338 171.558 290.966 209.205 290.966V290.983L209.211 290.966H250.003V318.275H209.211L209.205 318.261V318.275C156.414 318.275 113.621 275.482 113.621 222.691C113.621 169.9 156.414 127.107 209.205 127.107H290.798ZM304.452 72.4858V99.7974H209.205C176.379 99.7974 145.517 112.581 122.306 135.792C99.0947 159.002 86.3116 189.864 86.3115 222.691C86.3115 255.517 99.0948 286.379 122.306 309.59C145.517 332.801 176.379 345.584 209.205 345.584H290.798C328.445 345.584 359.073 314.956 359.073 277.309C359.073 239.662 328.445 209.034 290.798 209.034H250V181.725H290.798C343.589 181.725 386.382 224.518 386.382 277.309C386.382 330.1 343.589 372.893 290.798 372.893H209.205V372.896C126.249 372.896 59 305.647 59 222.691C59.0001 139.735 126.249 72.4859 209.205 72.4858H304.452Z" fill="#2D2726"/>
</g>
<defs>
<clipPath id="clip0_381_20">
<rect width="382" height="355.028" fill="white" transform="translate(59 72.4858)"/>
</clipPath>
</defs>
</svg>
